<svg width="1349" height="1349" viewBox="0 0 1349 1349" fill="none" xmlns="http://www.w3.org/2000/svg"><rect width="1349" height="1349" rx="28.8" fill="#fff"/><path d="M286.159 616.455h-32.841v-41.819h-48.409v41.819h-23.864v36.363h23.864v90.909c-.227 34.205 23.068 51.137 58.182 49.659 12.5-.454 21.364-2.954 26.25-4.545l-7.614-36.023c-2.386.455-7.5 1.591-12.045 1.591-9.659 0-16.364-3.636-16.364-17.045v-84.546h32.841v-36.363zm108.523 177.954c52.954 0 85.909-36.25 85.909-90 0-54.091-32.955-90.227-85.909-90.227-52.955 0-85.909 36.136-85.909 90.227 0 53.75 32.954 90 85.909 90zm.227-37.5c-24.432 0-36.932-22.386-36.932-52.841 0-30.454 12.5-52.954 36.932-52.954 23.977 0 36.477 22.5 36.477 52.954 0 30.455-12.5 52.841-36.477 52.841zM624 716.682c.114 23.409-15.909 35.682-33.295 35.682-18.296 0-30.114-12.841-30.228-33.409v-102.5h-48.409v111.136c.114 40.795 23.977 65.682 59.091 65.682 26.25 0 45.114-13.523 52.955-33.978h1.818V791h46.477V616.455H624v100.227zm165.994 77.727c46.478 0 75.682-27.273 77.955-67.386h-45.682c-2.841 18.636-15.114 29.091-31.705 29.091-22.613 0-37.272-18.978-37.272-52.387 0-32.954 14.772-51.818 37.272-51.818 17.728 0 29.091 11.705 31.705 29.091h45.682c-2.046-40.341-32.614-66.818-78.182-66.818-52.955 0-85.682 36.704-85.682 90.227 0 53.068 32.159 90 85.909 90zm157.358-104.318c.114-22.5 13.864-35.682 33.637-35.682 19.661 0 31.251 12.614 31.131 34.091V791h48.41V679.864c.12-40.909-23.97-65.682-60.34-65.682-26.474 0-44.201 12.5-52.156 33.068h-2.045v-88.977h-47.046V791h48.409V690.091zm179.578 103.864c14.54 0 27.16-12.16 27.27-27.273-.11-14.887-12.73-27.046-27.27-27.046-15 0-27.39 12.159-27.28 27.046-.11 15.113 12.28 27.273 27.28 27.273z" fill="url(#paint0_linear_632_2)"/><defs><linearGradient id="paint0_linear_632_2" x1="1318.55" y1="674.5" x2="74.788" y2="731.836" gradientUnits="userSpaceOnUse"><stop stop-color="#5300BC"/><stop offset="1" stop-color="#6A8BFF"/></linearGradient></defs></svg>